<svg xmlns="http://www.w3.org/2000/svg" width="824" height="1493"><defs><style>@import url('https://fonts.googleapis.com/css2?family=Roboto+Mono&amp;display=swap')</style><style>text,text&gt;tspan{font-family:'Roboto Mono';font-size:16px} rect{stroke:black} line,path{fill:none;stroke:black}</style><marker id="arrowMarker" orient="auto" refX="6" refY="5" markerHeight="10" markerWidth="5"><path style="fill:black;stroke:black" d="M 0 0 L 5 5 L 0 10 Z"></path></marker><marker id="inheritMarker" orient="auto" refX="16" refY="7.5" markerHeight="15" markerWidth="15"><path style="fill:white;stroke:black" d="M 0 0 L 15 7.5 L 0 15 Z"></path></marker><marker id="aggregationMarker" orient="auto" refX="21" refY="7.5" markerHeight="15" markerWidth="20"><path style="fill:white;stroke:black" d="M 0 7.5 L 10 0 L 20 7.5 L 10 15 Z"></path></marker><marker id="compositionMarker" orient="auto" refX="21" refY="7.5" markerHeight="15" markerWidth="20"><path style="fill:black;stroke:black" d="M 0 7.5 L 10 0 L 20 7.5 L 10 15 Z"></path></marker></defs><g transform="translate(43,133)"><rect height="122" width="95" style="fill:white"></rect><rect height="21" width="95.5" style="fill:lightgrey"></rect><text x="28.75" y="16">user</text><text><tspan x="2.5" y="37" style="text-decoration:underline">id_user</tspan><tspan x="2.5" y="53">email</tspan><tspan x="2.5" y="69">password</tspan><tspan x="2.5" y="85">firstName</tspan><tspan x="2.5" y="101">lastName</tspan><tspan x="2.5" y="117">rights</tspan></text></g><g transform="translate(438,5)"><rect height="378" width="181" style="fill:white"></rect><rect height="21" width="181" style="fill:lightgrey"></rect><text x="43" y="16">escapeGame</text><text><tspan x="2.5" y="37" style="text-decoration:underline">id_escapeGame</tspan><tspan x="2.5" y="53">name</tspan><tspan x="2.5" y="69">nameFR</tspan><tspan x="2.5" y="85">puzzles</tspan><tspan x="2.5" y="101">adventures</tspan><tspan x="2.5" y="117">spots</tspan><tspan x="2.5" y="133">story</tspan><tspan x="2.5" y="149">description</tspan><tspan x="2.5" y="165">descriptionFR</tspan><tspan x="2.5" y="181">address</tspan><tspan x="2.5" y="197">visible</tspan><tspan x="2.5" y="213">price2_3Persons</tspan><tspan x="2.5" y="229">price4Persons</tspan><tspan x="2.5" y="245">price5Persons</tspan><tspan x="2.5" y="261">price6Persons</tspan><tspan x="2.5" y="277">price7Persons</tspan><tspan x="2.5" y="293">price8Persons</tspan><tspan x="2.5" y="309">price9Persons</tspan><tspan x="2.5" y="325">price10Persons</tspan><tspan x="2.5" y="341">price11Persons</tspan><tspan x="2.5" y="357">price12Persons</tspan><tspan x="2.5" y="373">price12PlusPersons</tspan></text></g><g transform="translate(33,525)"><rect height="122" width="114" style="fill:white"></rect><rect height="21" width="114.5" style="fill:lightgrey"></rect><text x="19.25" y="16">giftCard</text><text><tspan x="2.5" y="37" style="text-decoration:underline">id_giftCard</tspan><tspan x="2.5" y="53">buyingDate</tspan><tspan x="2.5" y="69">type</tspan><tspan x="2.5" y="85">amount</tspan><tspan x="2.5" y="101">code</tspan><tspan x="2.5" y="117">usageDate</tspan></text></g><g transform="translate(5,697)"><rect height="58" width="171" style="fill:white"></rect><rect height="21" width="171.5" style="fill:lightgrey"></rect><text x="19.25" y="16">giftCardAmount</text><text><tspan x="2.5" y="37" style="text-decoration:underline">id_giftCardAmount</tspan><tspan x="2.5" y="53">price</tspan></text></g><g transform="translate(33,805)"><rect height="74" width="114" style="fill:white"></rect><rect height="21" width="114.5" style="fill:lightgrey"></rect><text x="19.25" y="16">qAndACat</text><text><tspan x="2.5" y="37" style="text-decoration:underline">id_qAndACat</tspan><tspan x="2.5" y="53">title</tspan><tspan x="2.5" y="69">titleFR</tspan></text></g><g transform="translate(9,929)"><rect height="106" width="162" style="fill:white"></rect><rect height="21" width="162" style="fill:lightgrey"></rect><text x="19.25" y="16">qAndAQuestion</text><text><tspan x="2.5" y="37" style="text-decoration:underline">id_qAndAQuestion</tspan><tspan x="2.5" y="53">title</tspan><tspan x="2.5" y="69">titleFR</tspan><tspan x="2.5" y="85">answer</tspan><tspan x="2.5" y="101">answerFR</tspan></text></g><g transform="translate(38,1085)"><rect height="186" width="105" style="fill:white"></rect><rect height="21" width="105" style="fill:lightgrey"></rect><text x="33.5" y="16">jobs</text><text><tspan x="2.5" y="37" style="text-decoration:underline">id_jobs</tspan><tspan x="2.5" y="53">title</tspan><tspan x="2.5" y="69">titleFR</tspan><tspan x="2.5" y="85">position</tspan><tspan x="2.5" y="101">positionFR</tspan><tspan x="2.5" y="117">task</tspan><tspan x="2.5" y="133">taskFR</tspan><tspan x="2.5" y="149">strength</tspan><tspan x="2.5" y="165">strengthFR</tspan><tspan x="2.5" y="181">visible</tspan></text></g><g transform="translate(235,1109)"><rect height="138" width="143" style="fill:white"></rect><rect height="21" width="143" style="fill:lightgrey"></rect><text x="19.25" y="16">contactForm</text><text><tspan x="2.5" y="37" style="text-decoration:underline">id_contactForm</tspan><tspan x="2.5" y="53">date</tspan><tspan x="2.5" y="69">firstName</tspan><tspan x="2.5" y="85">lastName</tspan><tspan x="2.5" y="101">email</tspan><tspan x="2.5" y="117">phone</tspan><tspan x="2.5" y="133">message</tspan></text></g><g transform="translate(462,1321)"><rect height="122" width="133" style="fill:white"></rect><rect height="21" width="133.5" style="fill:lightgrey"></rect><text x="33.5" y="16">reviews</text><text><tspan x="2.5" y="37" style="text-decoration:underline">id_reviews</tspan><tspan x="2.5" y="53">firstName</tspan><tspan x="2.5" y="69">lastName</tspan><tspan x="2.5" y="85">description</tspan><tspan x="2.5" y="101">descriptionFR</tspan><tspan x="2.5" y="117">rating</tspan></text></g><g transform="translate(226,125)"><rect height="138" width="162.5" rx="20" ry="20" style="fill:lightgrey"></rect><line x1="0" x2="162.5" y1="21" y2="21"></line><text x="52.75" y="17">buying</text><text><tspan x="10" y="37">id_buying</tspan><tspan x="10" y="53">buyingDate</tspan><tspan x="10" y="69">gameDate</tspan><tspan x="10" y="85">nbPlayers</tspan><tspan x="10" y="101">buyersFirstName</tspan><tspan x="10" y="117">buyersLastName</tspan><tspan x="10" y="133">type</tspan></text></g><g transform="translate(33,433)"><rect height="42" width="115" rx="20" ry="20" style="fill:lightgrey"></rect><line x1="0" x2="115" y1="21" y2="21"></line><text x="10" y="17">buyingCard</text><text></text></g><g transform="translate(278,565)"><rect height="42" width="58" rx="20" ry="20" style="fill:lightgrey"></rect><line x1="0" x2="58" y1="21" y2="21"></line><text x="10" y="17">link</text><text></text></g><g transform="translate(268,705)"><rect height="42" width="77" rx="20" ry="20" style="fill:lightgrey"></rect><line x1="0" x2="77" y1="21" y2="21"></line><text x="10" y="17">amount</text><text></text></g><g transform="translate(259,821)"><rect height="42" width="96" rx="20" ry="20" style="fill:lightgrey"></rect><line x1="0" x2="96" y1="21" y2="21"></line><text x="10" y="17">belongTo</text><text></text></g><g transform="translate(249,961)"><rect height="42" width="115" rx="20" ry="20" style="fill:lightgrey"></rect><line x1="0" x2="115" y1="21" y2="21"></line><text x="10" y="17">categorise</text><text></text></g><g transform="translate(669,1361)"><rect height="42" width="105.5" rx="20" ry="20" style="fill:lightgrey"></rect><line x1="0" x2="105.5" y1="21" y2="21"></line><text x="10" y="17">reviewing</text><text></text></g><g><line x1="226" x2="138" y1="194" y2="194"></line><text x="143" y="215">1,N</text></g><g><line x1="388" x2="438" y1="194" y2="194"></line><text x="402" y="215">1,N</text></g><g><line x1="90" x2="90" y1="433" y2="255"></line><text x="95" y="276">1,N</text></g><g><line x1="90" x2="90" y1="475" y2="525"></line><text x="95" y="518">1,1</text></g><g><line x1="319" x2="438" y1="565" y2="354"></line><text x="402" y="375">1,N</text></g><g><line x1="278" x2="147" y1="586" y2="586"></line><text x="152" y="607">0,1</text></g><g><line x1="274" x2="147" y1="705" y2="623"></line><text x="152" y="644">0,1</text></g><g><line x1="268" x2="176" y1="726" y2="726"></line><text x="181" y="747">1,N</text></g><g><line x1="314" x2="464" y1="821" y2="383"></line><text x="428" y="404">1,1</text></g><g><line x1="259" x2="147" y1="842" y2="842"></line><text x="152" y="863">1,1</text></g><g><line x1="249" x2="171" y1="982" y2="982"></line><text x="176" y="1003">1,1</text></g><g><line x1="274" x2="147" y1="961" y2="879"></line><text x="152" y="900">1,N</text></g><g><line x1="718" x2="559" y1="1361" y2="383"></line><text x="564" y="404">0,N</text></g><g><line x1="669" x2="595" y1="1382" y2="1382"></line><text x="600" y="1403">1,1</text></g></svg>