<svg xmlns="http://www.w3.org/2000/svg" width="884" height="1397"><defs><style>@import url('https://fonts.googleapis.com/css2?family=Roboto+Mono&amp;display=swap')</style><style>text,text&gt;tspan{font-family:'Roboto Mono';font-size:16px} rect{stroke:black} line,path{fill:none;stroke:black}</style><marker id="arrowMarker" orient="auto" refX="6" refY="5" markerHeight="10" markerWidth="5"><path style="fill:black;stroke:black" d="M 0 0 L 5 5 L 0 10 Z"></path></marker><marker id="inheritMarker" orient="auto" refX="16" refY="7.5" markerHeight="15" markerWidth="15"><path style="fill:white;stroke:black" d="M 0 0 L 15 7.5 L 0 15 Z"></path></marker><marker id="aggregationMarker" orient="auto" refX="21" refY="7.5" markerHeight="15" markerWidth="20"><path style="fill:white;stroke:black" d="M 0 7.5 L 10 0 L 20 7.5 L 10 15 Z"></path></marker><marker id="compositionMarker" orient="auto" refX="21" refY="7.5" markerHeight="15" markerWidth="20"><path style="fill:black;stroke:black" d="M 0 7.5 L 10 0 L 20 7.5 L 10 15 Z"></path></marker></defs><g transform="translate(10,21)"><rect height="202" width="133" style="fill:white"></rect><rect height="21" width="133.5" style="fill:lightgrey"></rect><text x="19.25" y="16">escapeGame</text><text><tspan x="2.5" y="37" style="text-decoration:underline">id</tspan><tspan x="2.5" y="53">name</tspan><tspan x="2.5" y="69">nameFR</tspan><tspan x="2.5" y="85">puzzles</tspan><tspan x="2.5" y="101">adventures</tspan><tspan x="2.5" y="117">spots</tspan><tspan x="2.5" y="133">story</tspan><tspan x="2.5" y="149">description</tspan><tspan x="2.5" y="165">descriptionFR</tspan><tspan x="2.5" y="181">address</tspan><tspan x="2.5" y="197">visible</tspan></text></g><g transform="translate(372,5)"><rect height="234" width="152" style="fill:white"></rect><rect height="21" width="152.5" style="fill:lightgrey"></rect><text x="5" y="16">escapeGamePrice</text><text><tspan x="2.5" y="37" style="text-decoration:underline">id</tspan><tspan x="2.5" y="53">escapeGameId</tspan><tspan x="2.5" y="69">2_3Persons</tspan><tspan x="2.5" y="85">4Persons</tspan><tspan x="2.5" y="101">5Persons</tspan><tspan x="2.5" y="117">6Persons</tspan><tspan x="2.5" y="133">7Persons</tspan><tspan x="2.5" y="149">8Persons</tspan><tspan x="2.5" y="165">9Persons</tspan><tspan x="2.5" y="181">10Persons</tspan><tspan x="2.5" y="197">11Persons</tspan><tspan x="2.5" y="213">12Persons</tspan><tspan x="2.5" y="229">12PlusPersons</tspan></text></g><g transform="translate(391,289)"><rect height="138" width="114" style="fill:white"></rect><rect height="21" width="114.5" style="fill:lightgrey"></rect><text x="5" y="16">contactForm</text><text><tspan x="2.5" y="37" style="text-decoration:underline">id</tspan><tspan x="2.5" y="53">date</tspan><tspan x="2.5" y="69">firstName</tspan><tspan x="2.5" y="85">lastName</tspan><tspan x="2.5" y="101">email</tspan><tspan x="2.5" y="117">phone</tspan><tspan x="2.5" y="133">message</tspan></text></g><g transform="translate(574,289)"><rect height="138" width="124" style="fill:white"></rect><rect height="21" width="124" style="fill:lightgrey"></rect><text x="9.75" y="16">reservation</text><text><tspan x="2.5" y="37" style="text-decoration:underline">id</tspan><tspan x="2.5" y="53">date</tspan><tspan x="2.5" y="69">hours</tspan><tspan x="2.5" y="85">escapeGameId</tspan><tspan x="2.5" y="101">nbPersons</tspan><tspan x="2.5" y="117">firstName</tspan><tspan x="2.5" y="133">lastName</tspan></text></g><g transform="translate(14,477)"><rect height="106" width="124" style="fill:white"></rect><rect height="21" width="124" style="fill:lightgrey"></rect><text x="24" y="16">giftCard</text><text><tspan x="2.5" y="37" style="text-decoration:underline">id</tspan><tspan x="2.5" y="53">type</tspan><tspan x="2.5" y="69">price</tspan><tspan x="2.5" y="85">escapeGameId</tspan><tspan x="2.5" y="101">nbPersons</tspan></text></g><g transform="translate(198,493)"><rect height="74" width="124" style="fill:white"></rect><rect height="21" width="124" style="fill:lightgrey"></rect><text x="5" y="16">giftCardSale</text><text><tspan x="2.5" y="37" style="text-decoration:underline">id</tspan><tspan x="2.5" y="53">userId</tspan><tspan x="2.5" y="69">giftCardId</tspan></text></g><g transform="translate(10,725)"><rect height="90" width="133" style="fill:white"></rect><rect height="21" width="133.5" style="fill:lightgrey"></rect><text x="28.75" y="16">qAndACat</text><text><tspan x="2.5" y="37" style="text-decoration:underline">id</tspan><tspan x="2.5" y="53">title</tspan><tspan x="2.5" y="69">titleFR</tspan><tspan x="2.5" y="85">escapeGamesId</tspan></text></g><g transform="translate(10,865)"><rect height="122" width="133" style="fill:white"></rect><rect height="21" width="133.5" style="fill:lightgrey"></rect><text x="5" y="16">qAndAQuestion</text><text><tspan x="2.5" y="37" style="text-decoration:underline">id</tspan><tspan x="2.5" y="53">title</tspan><tspan x="2.5" y="69">titleFR</tspan><tspan x="2.5" y="85">answer</tspan><tspan x="2.5" y="101">answerFR</tspan><tspan x="2.5" y="117">qAndACatId</tspan></text></g><g transform="translate(24,1037)"><rect height="186" width="105" style="fill:white"></rect><rect height="21" width="105" style="fill:lightgrey"></rect><text x="33.5" y="16">jobs</text><text><tspan x="2.5" y="37" style="text-decoration:underline">id</tspan><tspan x="2.5" y="53">title</tspan><tspan x="2.5" y="69">titleFR</tspan><tspan x="2.5" y="85">position</tspan><tspan x="2.5" y="101">positionFR</tspan><tspan x="2.5" y="117">task</tspan><tspan x="2.5" y="133">taskFR</tspan><tspan x="2.5" y="149">strength</tspan><tspan x="2.5" y="165">strengthFR</tspan><tspan x="2.5" y="181">visible</tspan></text></g><g transform="translate(217,1085)"><rect height="90" width="86" style="fill:white"></rect><rect height="21" width="86" style="fill:lightgrey"></rect><text x="24" y="16">user</text><text><tspan x="2.5" y="37" style="text-decoration:underline">id</tspan><tspan x="2.5" y="53">email</tspan><tspan x="2.5" y="69">password</tspan><tspan x="2.5" y="85">rights</tspan></text></g><g transform="translate(381,1069)"><rect height="122" width="133" style="fill:white"></rect><rect height="21" width="133.5" style="fill:lightgrey"></rect><text x="33.5" y="16">reviews</text><text><tspan x="2.5" y="37" style="text-decoration:underline">id</tspan><tspan x="2.5" y="53">firstName</tspan><tspan x="2.5" y="69">lastName</tspan><tspan x="2.5" y="85">description</tspan><tspan x="2.5" y="101">descriptionFR</tspan><tspan x="2.5" y="117">rating</tspan></text></g><g transform="translate(5,1273)"><rect height="74" width="143" style="fill:white"></rect><rect height="21" width="143" style="fill:lightgrey"></rect><text x="5" y="16">escapeGameSale</text><text><tspan x="2.5" y="37" style="text-decoration:underline">id</tspan><tspan x="2.5" y="53">userId</tspan><tspan x="2.5" y="69">reservationId</tspan></text></g><g transform="translate(217,101)"><rect height="42" width="86.5" rx="20" ry="20" style="fill:lightgrey"></rect><line x1="0" x2="86.5" y1="21" y2="21"></line><text x="10" y="17">possede</text><text></text></g><g transform="translate(748,337)"><rect height="42" width="86.5" rx="20" ry="20" style="fill:lightgrey"></rect><line x1="0" x2="86.5" y1="21" y2="21"></line><text x="10" y="17">reserve</text><text></text></g><g transform="translate(390,509)"><rect height="42" width="115" rx="20" ry="20" style="fill:lightgrey"></rect><line x1="0" x2="115" y1="21" y2="21"></line><text x="10" y="17">acheteCard</text><text></text></g><g transform="translate(33,633)"><rect height="42" width="86.5" rx="20" ry="20" style="fill:lightgrey"></rect><line x1="0" x2="86.5" y1="21" y2="21"></line><text x="10" y="17">lieCard</text><text></text></g><g transform="translate(202,749)"><rect height="42" width="115" rx="20" ry="20" style="fill:lightgrey"></rect><line x1="0" x2="115" y1="21" y2="21"></line><text x="10" y="17">appartient</text><text></text></g><g transform="translate(202,905)"><rect height="42" width="115" rx="20" ry="20" style="fill:lightgrey"></rect><line x1="0" x2="115" y1="21" y2="21"></line><text x="10" y="17">categorise</text><text></text></g><g transform="translate(409,1289)"><rect height="42" width="77" rx="20" ry="20" style="fill:lightgrey"></rect><line x1="0" x2="77" y1="21" y2="21"></line><text x="10" y="17">achete</text><text></text></g><g transform="translate(612,1289)"><rect height="42" width="48.5" rx="20" ry="20" style="fill:lightgrey"></rect><line x1="0" x2="48.5" y1="21" y2="21"></line><text x="10" y="17">lie</text><text></text></g><g><line x1="217" x2="143" y1="122" y2="122"></line><text x="148" y="143">1,1</text></g><g><line x1="303" x2="372" y1="122" y2="122"></line><text x="336" y="143">1,1</text></g><g><line x1="748" x2="143" y1="344" y2="144"></line><text x="148" y="165">1,N</text></g><g><line x1="748" x2="698" y1="358" y2="358"></line><text x="703" y="379">1,1</text></g><g><line x1="440" x2="274" y1="551" y2="1085"></line><text x="279" y="1078">0,N</text></g><g><line x1="390" x2="322" y1="530" y2="530"></line><text x="327" y="551">1,1</text></g><g><line x1="76" x2="76" y1="633" y2="583"></line><text x="81" y="604">1,1</text></g><g><line x1="107" x2="205" y1="633" y2="567"></line><text x="169" y="588">1,1</text></g><g><line x1="253" x2="105" y1="749" y2="223"></line><text x="110" y="244">1,1</text></g><g><line x1="202" x2="143" y1="770" y2="770"></line><text x="148" y="791">1,1</text></g><g><line x1="202" x2="143" y1="926" y2="926"></line><text x="148" y="947">1,1</text></g><g><line x1="234" x2="129" y1="905" y2="815"></line><text x="134" y="836">1,N</text></g><g><line x1="425" x2="303" y1="1289" y2="1171"></line><text x="308" y="1192">0,N</text></g><g><line x1="409" x2="148" y1="1310" y2="1310"></line><text x="153" y="1331">1,1</text></g><g><line x1="612" x2="148" y1="1310" y2="1310"></line><text x="153" y="1331">1,1</text></g><g><line x1="636" x2="636" y1="1289" y2="427"></line><text x="641" y="448">1,1</text></g></svg>