<svg xmlns="http://www.w3.org/2000/svg" width="1096" height="1301"><defs><style>@import url('https://fonts.googleapis.com/css2?family=Roboto+Mono&amp;display=swap')</style><style>text,text&gt;tspan{font-family:'Roboto Mono';font-size:16px} rect{stroke:black} line,path{fill:none;stroke:black}</style><marker id="arrowMarker" orient="auto" refX="6" refY="5" markerHeight="10" markerWidth="5"><path style="fill:black;stroke:black" d="M 0 0 L 5 5 L 0 10 Z"></path></marker><marker id="inheritMarker" orient="auto" refX="16" refY="7.5" markerHeight="15" markerWidth="15"><path style="fill:white;stroke:black" d="M 0 0 L 15 7.5 L 0 15 Z"></path></marker><marker id="aggregationMarker" orient="auto" refX="21" refY="7.5" markerHeight="15" markerWidth="20"><path style="fill:white;stroke:black" d="M 0 7.5 L 10 0 L 20 7.5 L 10 15 Z"></path></marker><marker id="compositionMarker" orient="auto" refX="21" refY="7.5" markerHeight="15" markerWidth="20"><path style="fill:black;stroke:black" d="M 0 7.5 L 10 0 L 20 7.5 L 10 15 Z"></path></marker></defs><g transform="translate(10,13)"><rect height="202" width="133" style="fill:white"></rect><rect height="21" width="133.5" style="fill:lightgrey"></rect><text x="19.25" y="16">escapeGame</text><text><tspan x="2.5" y="37" style="text-decoration:underline">id</tspan><tspan x="2.5" y="53">name</tspan><tspan x="2.5" y="69">nameFR</tspan><tspan x="2.5" y="85">puzzles</tspan><tspan x="2.5" y="101">adventures</tspan><tspan x="2.5" y="117">spots</tspan><tspan x="2.5" y="133">story</tspan><tspan x="2.5" y="149">description</tspan><tspan x="2.5" y="165">descriptionFR</tspan><tspan x="2.5" y="181">address</tspan><tspan x="2.5" y="197">visible</tspan></text></g><g transform="translate(391,5)"><rect height="218" width="152" style="fill:white"></rect><rect height="21" width="152.5" style="fill:lightgrey"></rect><text x="5" y="16">escapeGamePrice</text><text><tspan x="2.5" y="37" style="text-decoration:underline">id</tspan><tspan x="2.5" y="53">2_3Persons</tspan><tspan x="2.5" y="69">4Persons</tspan><tspan x="2.5" y="85">5Persons</tspan><tspan x="2.5" y="101">6Persons</tspan><tspan x="2.5" y="117">7Persons</tspan><tspan x="2.5" y="133">8Persons</tspan><tspan x="2.5" y="149">9Persons</tspan><tspan x="2.5" y="165">10Persons</tspan><tspan x="2.5" y="181">11Persons</tspan><tspan x="2.5" y="197">12Persons</tspan><tspan x="2.5" y="213">12PlusPersons</tspan></text></g><g transform="translate(410,273)"><rect height="138" width="114" style="fill:white"></rect><rect height="21" width="114.5" style="fill:lightgrey"></rect><text x="5" y="16">contactForm</text><text><tspan x="2.5" y="37" style="text-decoration:underline">id</tspan><tspan x="2.5" y="53">date</tspan><tspan x="2.5" y="69">firstName</tspan><tspan x="2.5" y="85">lastName</tspan><tspan x="2.5" y="101">email</tspan><tspan x="2.5" y="117">phone</tspan><tspan x="2.5" y="133">message</tspan></text></g><g transform="translate(593,281)"><rect height="122" width="114" style="fill:white"></rect><rect height="21" width="114.5" style="fill:lightgrey"></rect><text x="5" y="16">reservation</text><text><tspan x="2.5" y="37" style="text-decoration:underline">id</tspan><tspan x="2.5" y="53">date</tspan><tspan x="2.5" y="69">hours</tspan><tspan x="2.5" y="85">nbPersons</tspan><tspan x="2.5" y="101">firstName</tspan><tspan x="2.5" y="117">lastName</tspan></text></g><g transform="translate(29,461)"><rect height="90" width="95" style="fill:white"></rect><rect height="21" width="95.5" style="fill:lightgrey"></rect><text x="9.75" y="16">giftCard</text><text><tspan x="2.5" y="37" style="text-decoration:underline">id</tspan><tspan x="2.5" y="53">type</tspan><tspan x="2.5" y="69">price</tspan><tspan x="2.5" y="85">nbPersons</tspan></text></g><g transform="translate(757,485)"><rect height="42" width="124" style="fill:white"></rect><rect height="21" width="124" style="fill:lightgrey"></rect><text x="5" y="16">giftCardSale</text><text><tspan x="2.5" y="37" style="text-decoration:underline">id</tspan></text></g><g transform="translate(33,693)"><rect height="74" width="86" style="fill:white"></rect><rect height="21" width="86" style="fill:lightgrey"></rect><text x="5" y="16">qAndACat</text><text><tspan x="2.5" y="37" style="text-decoration:underline">id</tspan><tspan x="2.5" y="53">title</tspan><tspan x="2.5" y="69">titleFR</tspan></text></g><g transform="translate(10,817)"><rect height="106" width="133" style="fill:white"></rect><rect height="21" width="133.5" style="fill:lightgrey"></rect><text x="5" y="16">qAndAQuestion</text><text><tspan x="2.5" y="37" style="text-decoration:underline">id</tspan><tspan x="2.5" y="53">title</tspan><tspan x="2.5" y="69">titleFR</tspan><tspan x="2.5" y="85">answer</tspan><tspan x="2.5" y="101">answerFR</tspan></text></g><g transform="translate(24,973)"><rect height="186" width="105" style="fill:white"></rect><rect height="21" width="105" style="fill:lightgrey"></rect><text x="33.5" y="16">jobs</text><text><tspan x="2.5" y="37" style="text-decoration:underline">id</tspan><tspan x="2.5" y="53">title</tspan><tspan x="2.5" y="69">titleFR</tspan><tspan x="2.5" y="85">position</tspan><tspan x="2.5" y="101">positionFR</tspan><tspan x="2.5" y="117">task</tspan><tspan x="2.5" y="133">taskFR</tspan><tspan x="2.5" y="149">strength</tspan><tspan x="2.5" y="165">strengthFR</tspan><tspan x="2.5" y="181">visible</tspan></text></g><g transform="translate(226,1021)"><rect height="90" width="86" style="fill:white"></rect><rect height="21" width="86" style="fill:lightgrey"></rect><text x="24" y="16">user</text><text><tspan x="2.5" y="37" style="text-decoration:underline">id</tspan><tspan x="2.5" y="53">email</tspan><tspan x="2.5" y="69">password</tspan><tspan x="2.5" y="85">rights</tspan></text></g><g transform="translate(400,1005)"><rect height="122" width="133" style="fill:white"></rect><rect height="21" width="133.5" style="fill:lightgrey"></rect><text x="33.5" y="16">reviews</text><text><tspan x="2.5" y="37" style="text-decoration:underline">id</tspan><tspan x="2.5" y="53">firstName</tspan><tspan x="2.5" y="69">lastName</tspan><tspan x="2.5" y="85">description</tspan><tspan x="2.5" y="101">descriptionFR</tspan><tspan x="2.5" y="117">rating</tspan></text></g><g transform="translate(5,1209)"><rect height="42" width="143" style="fill:white"></rect><rect height="21" width="143" style="fill:lightgrey"></rect><text x="5" y="16">escapeGameSale</text><text><tspan x="2.5" y="37" style="text-decoration:underline">id</tspan></text></g><g transform="translate(226,93)"><rect height="42" width="86.5" rx="20" ry="20" style="fill:lightgrey"></rect><line x1="0" x2="86.5" y1="21" y2="21"></line><text x="10" y="17">possede</text><text></text></g><g transform="translate(776,321)"><rect height="42" width="86.5" rx="20" ry="20" style="fill:lightgrey"></rect><line x1="0" x2="86.5" y1="21" y2="21"></line><text x="10" y="17">reserve</text><text></text></g><g transform="translate(198,485)"><rect height="42" width="143.5" rx="20" ry="20" style="fill:lightgrey"></rect><line x1="0" x2="143.5" y1="21" y2="21"></line><text x="10" y="17">lieEscapeGame</text><text></text></g><g transform="translate(931,485)"><rect height="42" width="115" rx="20" ry="20" style="fill:lightgrey"></rect><line x1="0" x2="115" y1="21" y2="21"></line><text x="10" y="17">acheteCard</text><text></text></g><g transform="translate(33,601)"><rect height="42" width="86.5" rx="20" ry="20" style="fill:lightgrey"></rect><line x1="0" x2="86.5" y1="21" y2="21"></line><text x="10" y="17">lieCard</text><text></text></g><g transform="translate(212,709)"><rect height="42" width="115" rx="20" ry="20" style="fill:lightgrey"></rect><line x1="0" x2="115" y1="21" y2="21"></line><text x="10" y="17">appartient</text><text></text></g><g transform="translate(212,849)"><rect height="42" width="115" rx="20" ry="20" style="fill:lightgrey"></rect><line x1="0" x2="115" y1="21" y2="21"></line><text x="10" y="17">categorise</text><text></text></g><g transform="translate(428,1209)"><rect height="42" width="77" rx="20" ry="20" style="fill:lightgrey"></rect><line x1="0" x2="77" y1="21" y2="21"></line><text x="10" y="17">achete</text><text></text></g><g transform="translate(626,1209)"><rect height="42" width="48.5" rx="20" ry="20" style="fill:lightgrey"></rect><line x1="0" x2="48.5" y1="21" y2="21"></line><text x="10" y="17">lie</text><text></text></g><g transform="translate(790,1209)"><rect height="42" width="58" rx="20" ry="20" style="fill:lightgrey"></rect><line x1="0" x2="58" y1="21" y2="21"></line><text x="10" y="17">lie2</text><text></text></g><g><line x1="226" x2="143" y1="114" y2="114"></line><text x="148" y="135">1,1</text></g><g><line x1="312" x2="391" y1="114" y2="114"></line><text x="355" y="135">1,1</text></g><g><line x1="776" x2="143" y1="329" y2="135"></line><text x="148" y="156">1,N</text></g><g><line x1="776" x2="707" y1="342" y2="342"></line><text x="712" y="363">1,1</text></g><g><line x1="259" x2="126" y1="485" y2="215"></line><text x="131" y="236">1,1</text></g><g><line x1="198" x2="124" y1="506" y2="506"></line><text x="129" y="527">1,1</text></g><g><line x1="961" x2="312" y1="527" y2="1033"></line><text x="317" y="1026">0,N</text></g><g><line x1="931" x2="881" y1="506" y2="506"></line><text x="886" y="527">1,1</text></g><g><line x1="76" x2="76" y1="601" y2="551"></line><text x="81" y="572">1,1</text></g><g><line x1="119" x2="757" y1="615" y2="516"></line><text x="721" y="537">1,1</text></g><g><line x1="262" x2="108" y1="709" y2="215"></line><text x="113" y="236">1,1</text></g><g><line x1="212" x2="119" y1="730" y2="730"></line><text x="124" y="751">1,1</text></g><g><line x1="212" x2="143" y1="870" y2="870"></line><text x="148" y="891">1,1</text></g><g><line x1="240" x2="119" y1="849" y2="761"></line><text x="124" y="782">1,N</text></g><g><line x1="441" x2="312" y1="1209" y2="1102"></line><text x="317" y="1123">0,N</text></g><g><line x1="428" x2="148" y1="1230" y2="1230"></line><text x="153" y="1251">1,1</text></g><g><line x1="626" x2="148" y1="1230" y2="1230"></line><text x="153" y="1251">1,1</text></g><g><line x1="650" x2="650" y1="1209" y2="403"></line><text x="655" y="424">1,1</text></g><g><line x1="815" x2="662" y1="1209" y2="403"></line><text x="667" y="424">1,1</text></g><g><line x1="790" x2="148" y1="1230" y2="1230"></line><text x="153" y="1251">1,1</text></g></svg>