<svg xmlns="http://www.w3.org/2000/svg" width="902" height="1305"><defs><style>@import url('https://fonts.googleapis.com/css2?family=Roboto+Mono&amp;display=swap')</style><style>text,text&gt;tspan{font-family:'Roboto Mono';font-size:16px} rect{stroke:black} line,path{fill:none;stroke:black}</style><marker id="arrowMarker" orient="auto" refX="6" refY="5" markerHeight="10" markerWidth="5"><path style="fill:black;stroke:black" d="M 0 0 L 5 5 L 0 10 Z"></path></marker><marker id="inheritMarker" orient="auto" refX="16" refY="7.5" markerHeight="15" markerWidth="15"><path style="fill:white;stroke:black" d="M 0 0 L 15 7.5 L 0 15 Z"></path></marker><marker id="aggregationMarker" orient="auto" refX="21" refY="7.5" markerHeight="15" markerWidth="20"><path style="fill:white;stroke:black" d="M 0 7.5 L 10 0 L 20 7.5 L 10 15 Z"></path></marker><marker id="compositionMarker" orient="auto" refX="21" refY="7.5" markerHeight="15" markerWidth="20"><path style="fill:black;stroke:black" d="M 0 7.5 L 10 0 L 20 7.5 L 10 15 Z"></path></marker></defs><g transform="translate(10,21)"><rect height="202" width="133" style="fill:white"></rect><rect height="21" width="133.5" style="fill:lightgrey"></rect><text x="19.25" y="16">escapeGame</text><text><tspan x="2.5" y="37" style="text-decoration:underline">id</tspan><tspan x="2.5" y="53">name</tspan><tspan x="2.5" y="69">nameFR</tspan><tspan x="2.5" y="85">puzzles</tspan><tspan x="2.5" y="101">adventures</tspan><tspan x="2.5" y="117">spots</tspan><tspan x="2.5" y="133">story</tspan><tspan x="2.5" y="149">description</tspan><tspan x="2.5" y="165">descriptionFR</tspan><tspan x="2.5" y="181">address</tspan><tspan x="2.5" y="197">visible</tspan></text></g><g transform="translate(343,5)"><rect height="234" width="152" style="fill:white"></rect><rect height="21" width="152.5" style="fill:lightgrey"></rect><text x="5" y="16">escapeGamePrice</text><text><tspan x="2.5" y="37" style="text-decoration:underline">id</tspan><tspan x="2.5" y="53">2_3Persons</tspan><tspan x="2.5" y="69">4Persons</tspan><tspan x="2.5" y="85">5Persons</tspan><tspan x="2.5" y="101">6Persons</tspan><tspan x="2.5" y="117">7Persons</tspan><tspan x="2.5" y="133">8Persons</tspan><tspan x="2.5" y="149">9Persons</tspan><tspan x="2.5" y="165">10Persons</tspan><tspan x="2.5" y="181">11Persons</tspan><tspan x="2.5" y="197">12Persons</tspan><tspan x="2.5" y="213">12PlusPersons</tspan><tspan x="2.5" y="229">id_escapeGame</tspan></text></g><g transform="translate(362,289)"><rect height="138" width="114" style="fill:white"></rect><rect height="21" width="114.5" style="fill:lightgrey"></rect><text x="5" y="16">contactForm</text><text><tspan x="2.5" y="37" style="text-decoration:underline">id</tspan><tspan x="2.5" y="53">date</tspan><tspan x="2.5" y="69">firstName</tspan><tspan x="2.5" y="85">lastName</tspan><tspan x="2.5" y="101">email</tspan><tspan x="2.5" y="117">phone</tspan><tspan x="2.5" y="133">message</tspan></text></g><g transform="translate(545,289)"><rect height="138" width="133" style="fill:white"></rect><rect height="21" width="133.5" style="fill:lightgrey"></rect><text x="14.5" y="16">reservation</text><text><tspan x="2.5" y="37" style="text-decoration:underline">id</tspan><tspan x="2.5" y="53">date</tspan><tspan x="2.5" y="69">hours</tspan><tspan x="2.5" y="85">nbPersons</tspan><tspan x="2.5" y="101">firstName</tspan><tspan x="2.5" y="117">lastName</tspan><tspan x="2.5" y="133">id_escapeGame</tspan></text></g><g transform="translate(10,477)"><rect height="106" width="133" style="fill:white"></rect><rect height="21" width="133.5" style="fill:lightgrey"></rect><text x="28.75" y="16">giftCard</text><text><tspan x="2.5" y="37" style="text-decoration:underline">id</tspan><tspan x="2.5" y="53">type</tspan><tspan x="2.5" y="69">price</tspan><tspan x="2.5" y="85">nbPersons</tspan><tspan x="2.5" y="101">id_escapeGame</tspan></text></g><g transform="translate(728,493)"><rect height="74" width="124" style="fill:white"></rect><rect height="21" width="124" style="fill:lightgrey"></rect><text x="5" y="16">giftCardSale</text><text><tspan x="2.5" y="37" style="text-decoration:underline">id</tspan><tspan x="2.5" y="53">id_giftCard</tspan><tspan x="2.5" y="69">id_user</tspan></text></g><g transform="translate(10,633)"><rect height="90" width="133" style="fill:white"></rect><rect height="21" width="133.5" style="fill:lightgrey"></rect><text x="28.75" y="16">qAndACat</text><text><tspan x="2.5" y="37" style="text-decoration:underline">id</tspan><tspan x="2.5" y="53">title</tspan><tspan x="2.5" y="69">titleFR</tspan><tspan x="2.5" y="85">id_escapeGame</tspan></text></g><g transform="translate(10,773)"><rect height="122" width="133" style="fill:white"></rect><rect height="21" width="133.5" style="fill:lightgrey"></rect><text x="5" y="16">qAndAQuestion</text><text><tspan x="2.5" y="37" style="text-decoration:underline">id</tspan><tspan x="2.5" y="53">title</tspan><tspan x="2.5" y="69">titleFR</tspan><tspan x="2.5" y="85">answer</tspan><tspan x="2.5" y="101">answerFR</tspan><tspan x="2.5" y="117">id_qAndACat</tspan></text></g><g transform="translate(24,945)"><rect height="186" width="105" style="fill:white"></rect><rect height="21" width="105" style="fill:lightgrey"></rect><text x="33.5" y="16">jobs</text><text><tspan x="2.5" y="37" style="text-decoration:underline">id</tspan><tspan x="2.5" y="53">title</tspan><tspan x="2.5" y="69">titleFR</tspan><tspan x="2.5" y="85">position</tspan><tspan x="2.5" y="101">positionFR</tspan><tspan x="2.5" y="117">task</tspan><tspan x="2.5" y="133">taskFR</tspan><tspan x="2.5" y="149">strength</tspan><tspan x="2.5" y="165">strengthFR</tspan><tspan x="2.5" y="181">visible</tspan></text></g><g transform="translate(198,977)"><rect height="122" width="95" style="fill:white"></rect><rect height="21" width="95.5" style="fill:lightgrey"></rect><text x="28.75" y="16">user</text><text><tspan x="2.5" y="37" style="text-decoration:underline">id</tspan><tspan x="2.5" y="53">email</tspan><tspan x="2.5" y="69">password</tspan><tspan x="2.5" y="85">firstName</tspan><tspan x="2.5" y="101">lastName</tspan><tspan x="2.5" y="117">rights</tspan></text></g><g transform="translate(352,977)"><rect height="122" width="133" style="fill:white"></rect><rect height="21" width="133.5" style="fill:lightgrey"></rect><text x="33.5" y="16">reviews</text><text><tspan x="2.5" y="37" style="text-decoration:underline">id</tspan><tspan x="2.5" y="53">firstName</tspan><tspan x="2.5" y="69">lastName</tspan><tspan x="2.5" y="85">description</tspan><tspan x="2.5" y="101">descriptionFR</tspan><tspan x="2.5" y="117">rating</tspan></text></g><g transform="translate(5,1181)"><rect height="74" width="143" style="fill:white"></rect><rect height="21" width="143" style="fill:lightgrey"></rect><text x="5" y="16">escapeGameSale</text><text><tspan x="2.5" y="37" style="text-decoration:underline">id</tspan><tspan x="2.5" y="53">id_reservation</tspan><tspan x="2.5" y="69">id_user</tspan></text></g><g><path d="M 343 229 L 333 229 L 153 53 L 143 53" marker-end="url(#arrowMarker)"></path></g><g><path d="M 545 417 L 535 417 L 153 53 L 143 53" marker-end="url(#arrowMarker)"></path></g><g><path d="M 143 573 L 153 573 L 153 53 L 143 53" marker-end="url(#arrowMarker)"></path></g><g><path d="M 728 541 L 718 541 L 153 509 L 143 509" marker-end="url(#arrowMarker)"></path></g><g><path d="M 728 557 L 718 557 L 303 1009 L 293 1009" marker-end="url(#arrowMarker)"></path></g><g><path d="M 143 713 L 153 713 L 153 53 L 143 53" marker-end="url(#arrowMarker)"></path></g><g><path d="M 143 885 L 153 885 L 153 665 L 143 665" marker-end="url(#arrowMarker)"></path></g><g><path d="M 148 1229 L 158 1229 L 535 321 L 545 321" marker-end="url(#arrowMarker)"></path></g><g><path d="M 148 1245 L 158 1245 L 188 1009 L 198 1009" marker-end="url(#arrowMarker)"></path></g></svg>