<svg xmlns="http://www.w3.org/2000/svg" width="1312" height="1321"><defs><style>@import url('https://fonts.googleapis.com/css2?family=Roboto+Mono&amp;display=swap')</style><style>text,text&gt;tspan{font-family:'Roboto Mono';font-size:16px} rect{stroke:black} line,path{fill:none;stroke:black}</style><marker id="arrowMarker" orient="auto" refX="6" refY="5" markerHeight="10" markerWidth="5"><path style="fill:black;stroke:black" d="M 0 0 L 5 5 L 0 10 Z"></path></marker><marker id="inheritMarker" orient="auto" refX="16" refY="7.5" markerHeight="15" markerWidth="15"><path style="fill:white;stroke:black" d="M 0 0 L 15 7.5 L 0 15 Z"></path></marker><marker id="aggregationMarker" orient="auto" refX="21" refY="7.5" markerHeight="15" markerWidth="20"><path style="fill:white;stroke:black" d="M 0 7.5 L 10 0 L 20 7.5 L 10 15 Z"></path></marker><marker id="compositionMarker" orient="auto" refX="21" refY="7.5" markerHeight="15" markerWidth="20"><path style="fill:black;stroke:black" d="M 0 7.5 L 10 0 L 20 7.5 L 10 15 Z"></path></marker></defs><g transform="translate(19,21)"><rect height="202" width="209" style="fill:white"></rect><rect height="21" width="209.5" style="fill:lightgrey"></rect><text x="57.25" y="16">escapeGame</text><text><tspan x="2.5" y="37" style="text-decoration:underline">id</tspan><tspan x="176" y="37">INT</tspan><tspan x="2.5" y="53">name</tspan><tspan x="100" y="53">VARCHAR(64)</tspan><tspan x="2.5" y="69">nameFR</tspan><tspan x="100" y="69">VARCHAR(64)</tspan><tspan x="2.5" y="85">puzzles</tspan><tspan x="176" y="85">INT</tspan><tspan x="2.5" y="101">adventures</tspan><tspan x="176" y="101">INT</tspan><tspan x="2.5" y="117">spots</tspan><tspan x="176" y="117">INT</tspan><tspan x="2.5" y="133">story</tspan><tspan x="176" y="133">INT</tspan><tspan x="2.5" y="149">description</tspan><tspan x="166.5" y="149">TEXT</tspan><tspan x="2.5" y="165">descriptionFR</tspan><tspan x="166.5" y="165">TEXT</tspan><tspan x="2.5" y="181">address</tspan><tspan x="90.5" y="181">VARCHAR(255)</tspan><tspan x="2.5" y="197">visible</tspan><tspan x="138" y="197">BOOLEAN</tspan></text></g><g transform="translate(571,5)"><rect height="234" width="200" style="fill:white"></rect><rect height="21" width="200" style="fill:lightgrey"></rect><text x="28.75" y="16">escapeGamePrice</text><text><tspan x="2.5" y="37" style="text-decoration:underline">id</tspan><tspan x="166.5" y="37">INT</tspan><tspan x="2.5" y="53">2_3Persons</tspan><tspan x="147.5" y="53">FLOAT</tspan><tspan x="2.5" y="69">4Persons</tspan><tspan x="147.5" y="69">FLOAT</tspan><tspan x="2.5" y="85">5Persons</tspan><tspan x="147.5" y="85">FLOAT</tspan><tspan x="2.5" y="101">6Persons</tspan><tspan x="147.5" y="101">FLOAT</tspan><tspan x="2.5" y="117">7Persons</tspan><tspan x="147.5" y="117">FLOAT</tspan><tspan x="2.5" y="133">8Persons</tspan><tspan x="147.5" y="133">FLOAT</tspan><tspan x="2.5" y="149">9Persons</tspan><tspan x="147.5" y="149">FLOAT</tspan><tspan x="2.5" y="165">10Persons</tspan><tspan x="147.5" y="165">FLOAT</tspan><tspan x="2.5" y="181">11Persons</tspan><tspan x="147.5" y="181">FLOAT</tspan><tspan x="2.5" y="197">12Persons</tspan><tspan x="147.5" y="197">FLOAT</tspan><tspan x="2.5" y="213">12PlusPersons</tspan><tspan x="147.5" y="213">FLOAT</tspan><tspan x="2.5" y="229">id_escapeGame</tspan><tspan x="166.5" y="229">INT</tspan></text></g><g transform="translate(562,297)"><rect height="138" width="219" style="fill:white"></rect><rect height="21" width="219" style="fill:lightgrey"></rect><text x="57.25" y="16">contactForm</text><text><tspan x="2.5" y="37" style="text-decoration:underline">id</tspan><tspan x="185.5" y="37">INT</tspan><tspan x="2.5" y="53">date</tspan><tspan x="176" y="53">DATE</tspan><tspan x="2.5" y="69">firstName</tspan><tspan x="109.5" y="69">VARCHAR(32)</tspan><tspan x="2.5" y="85">lastName</tspan><tspan x="109.5" y="85">VARCHAR(32)</tspan><tspan x="2.5" y="101">email</tspan><tspan x="100" y="101">VARCHAR(255)</tspan><tspan x="2.5" y="117">phone</tspan><tspan x="185.5" y="117">INT</tspan><tspan x="2.5" y="133">message</tspan><tspan x="176" y="133">TEXT</tspan></text></g><g transform="translate(831,289)"><rect height="154" width="219" style="fill:white"></rect><rect height="21" width="219" style="fill:lightgrey"></rect><text x="57.25" y="16">reservation</text><text><tspan x="2.5" y="37" style="text-decoration:underline">id</tspan><tspan x="185.5" y="37">INT</tspan><tspan x="2.5" y="53">date</tspan><tspan x="176" y="53">DATE</tspan><tspan x="2.5" y="69">hours</tspan><tspan x="147.5" y="69">TINYINT</tspan><tspan x="2.5" y="85">nbPersons</tspan><tspan x="147.5" y="85">TINYINT</tspan><tspan x="2.5" y="101">firstName</tspan><tspan x="109.5" y="101">VARCHAR(32)</tspan><tspan x="2.5" y="117">lastName</tspan><tspan x="109.5" y="117">VARCHAR(32)</tspan><tspan x="2.5" y="133">id_escapeGameSale</tspan><tspan x="185.5" y="133">INT</tspan><tspan x="2.5" y="149">id_escapeGame</tspan><tspan x="185.5" y="149">INT</tspan></text></g><g transform="translate(33,493)"><rect height="106" width="181" style="fill:white"></rect><rect height="21" width="181" style="fill:lightgrey"></rect><text x="52.5" y="16">giftCard</text><text><tspan x="2.5" y="37" style="text-decoration:underline">id</tspan><tspan x="147.5" y="37">INT</tspan><tspan x="2.5" y="53">type</tspan><tspan x="71.5" y="53">VARCHAR(50)</tspan><tspan x="2.5" y="69">price</tspan><tspan x="128.5" y="69">FLOAT</tspan><tspan x="2.5" y="85">nbPersons</tspan><tspan x="109.5" y="85">TINYINT</tspan><tspan x="2.5" y="101">id_escapeGame</tspan><tspan x="147.5" y="101">INT</tspan></text></g><g transform="translate(1100,509)"><rect height="74" width="162" style="fill:white"></rect><rect height="21" width="162" style="fill:lightgrey"></rect><text x="24" y="16">giftCardSale</text><text><tspan x="2.5" y="37" style="text-decoration:underline">id</tspan><tspan x="128.5" y="37">INT</tspan><tspan x="2.5" y="53">id_giftCard</tspan><tspan x="128.5" y="53">INT</tspan><tspan x="2.5" y="69">id_user</tspan><tspan x="128.5" y="69">INT</tspan></text></g><g transform="translate(19,649)"><rect height="90" width="209" style="fill:white"></rect><rect height="21" width="209.5" style="fill:lightgrey"></rect><text x="66.75" y="16">qAndACat</text><text><tspan x="2.5" y="37" style="text-decoration:underline">id</tspan><tspan x="176" y="37">INT</tspan><tspan x="2.5" y="53">title</tspan><tspan x="90.5" y="53">VARCHAR(255)</tspan><tspan x="2.5" y="69">titleFR</tspan><tspan x="90.5" y="69">VARCHAR(255)</tspan><tspan x="2.5" y="85">id_escapeGame</tspan><tspan x="176" y="85">INT</tspan></text></g><g transform="translate(19,789)"><rect height="122" width="209" style="fill:white"></rect><rect height="21" width="209.5" style="fill:lightgrey"></rect><text x="43" y="16">qAndAQuestion</text><text><tspan x="2.5" y="37" style="text-decoration:underline">id</tspan><tspan x="176" y="37">INT</tspan><tspan x="2.5" y="53">title</tspan><tspan x="90.5" y="53">VARCHAR(255)</tspan><tspan x="2.5" y="69">titleFR</tspan><tspan x="90.5" y="69">VARCHAR(255)</tspan><tspan x="2.5" y="85">answer</tspan><tspan x="166.5" y="85">TEXT</tspan><tspan x="2.5" y="101">answerFR</tspan><tspan x="166.5" y="101">TEXT</tspan><tspan x="2.5" y="117">id_qAndACat</tspan><tspan x="176" y="117">INT</tspan></text></g><g transform="translate(5,961)"><rect height="186" width="238" style="fill:white"></rect><rect height="21" width="238" style="fill:lightgrey"></rect><text x="100" y="16">jobs</text><text><tspan x="2.5" y="37" style="text-decoration:underline">id</tspan><tspan x="204.5" y="37">INT</tspan><tspan x="2.5" y="53">title</tspan><tspan x="119" y="53">VARCHAR(255)</tspan><tspan x="2.5" y="69">titleFR</tspan><tspan x="119" y="69">VARCHAR(255)</tspan><tspan x="2.5" y="85">position</tspan><tspan x="119" y="85">VARCHAR(255)</tspan><tspan x="2.5" y="101">positionFR</tspan><tspan x="119" y="101">VARCHAR(255)</tspan><tspan x="2.5" y="117">task</tspan><tspan x="195" y="117">TEXT</tspan><tspan x="2.5" y="133">taskFR</tspan><tspan x="195" y="133">TEXT</tspan><tspan x="2.5" y="149">strength</tspan><tspan x="195" y="149">TEXT</tspan><tspan x="2.5" y="165">strengthFR</tspan><tspan x="195" y="165">TEXT</tspan><tspan x="2.5" y="181">visible</tspan><tspan x="166.5" y="181">BOOLEAN</tspan></text></g><g transform="translate(293,1009)"><rect height="90" width="219" style="fill:white"></rect><rect height="21" width="219" style="fill:lightgrey"></rect><text x="90.5" y="16">user</text><text><tspan x="2.5" y="37" style="text-decoration:underline">id</tspan><tspan x="185.5" y="37">INT</tspan><tspan x="2.5" y="53">email</tspan><tspan x="100" y="53">VARCHAR(255)</tspan><tspan x="2.5" y="69">password</tspan><tspan x="100" y="69">VARCHAR(255)</tspan><tspan x="2.5" y="85">rights</tspan><tspan x="109.5" y="85">VARCHAR(50)</tspan></text></g><g transform="translate(562,993)"><rect height="122" width="219" style="fill:white"></rect><rect height="21" width="219" style="fill:lightgrey"></rect><text x="76.25" y="16">reviews</text><text><tspan x="2.5" y="37" style="text-decoration:underline">id</tspan><tspan x="185.5" y="37">INT</tspan><tspan x="2.5" y="53">firstName</tspan><tspan x="109.5" y="53">VARCHAR(32)</tspan><tspan x="2.5" y="69">lastName</tspan><tspan x="109.5" y="69">VARCHAR(32)</tspan><tspan x="2.5" y="85">description</tspan><tspan x="176" y="85">TEXT</tspan><tspan x="2.5" y="101">descriptionFR</tspan><tspan x="176" y="101">TEXT</tspan><tspan x="2.5" y="117">rating</tspan><tspan x="166.5" y="117">FLOAT</tspan></text></g><g transform="translate(29,1197)"><rect height="74" width="190" style="fill:white"></rect><rect height="21" width="190.5" style="fill:lightgrey"></rect><text x="28.75" y="16">escapeGameSale</text><text><tspan x="2.5" y="37" style="text-decoration:underline">id</tspan><tspan x="157" y="37">INT</tspan><tspan x="2.5" y="53">id_reservation</tspan><tspan x="157" y="53">INT</tspan><tspan x="2.5" y="69">id_user</tspan><tspan x="157" y="69">INT</tspan></text></g><g><path d="M 571 229 L 561 229 L 238 53 L 228 53" marker-end="url(#arrowMarker)"></path></g><g><path d="M 831 417 L 821 417 L 229 1229 L 219 1229" marker-end="url(#arrowMarker)"></path></g><g><path d="M 831 433 L 821 433 L 238 53 L 228 53" marker-end="url(#arrowMarker)"></path></g><g><path d="M 214 589 L 238 589 L 238 53 L 228 53" marker-end="url(#arrowMarker)"></path></g><g><path d="M 1100 557 L 1090 557 L 224 525 L 214 525" marker-end="url(#arrowMarker)"></path></g><g><path d="M 1100 573 L 1090 573 L 522 1041 L 512 1041" marker-end="url(#arrowMarker)"></path></g><g><path d="M 228 729 L 238 729 L 238 53 L 228 53" marker-end="url(#arrowMarker)"></path></g><g><path d="M 228 901 L 238 901 L 238 681 L 228 681" marker-end="url(#arrowMarker)"></path></g><g><path d="M 219 1245 L 229 1245 L 821 321 L 831 321" marker-end="url(#arrowMarker)"></path></g><g><path d="M 219 1261 L 229 1261 L 283 1041 L 293 1041" marker-end="url(#arrowMarker)"></path></g></svg>